{
  "accessors": [
    {
      "bufferView": 2,
      "componentType": 5126,
      "count": 1636,
      "max": [
        0.7988754510879517,
        0.7198202610015869,
        0.3596031963825226
      ],
      "min": [
        -0.7988752722740173,
        0.03448969125747681,
        -0.3596031069755554
      ],
      "type": "VEC3"
    },
    {
      "bufferView": 2,
      "byteOffset": 19632,
      "componentType": 5126,
      "count": 1636,
      "max": [
        1.0,
        1.0,
        1.0
      ],
      "min": [
        -1.0,
        -1.0,
        -1.0
      ],
      "type": "VEC3"
    },
    {
      "bufferView": 1,
      "componentType": 5126,
      "count": 1636,
      "max": [
        0.9675321578979492,
        0.9882679581642151
      ],
      "min": [
        0.8205461502075195,
        0.0004172325134277344
      ],
      "type": "VEC2"
    },
    {
      "bufferView": 0,
      "componentType": 5125,
      "count": 5184,
      "type": "SCALAR"
    },
    {
      "bufferView": 2,
      "byteOffset": 39264,
      "componentType": 5126,
      "count": 1235,
      "max": [
        0.9139999747276306,
        0.7396224141120911,
        0.38021257519721985
      ],
      "min": [
        -0.914004385471344,
        0.6999978423118591,
        -0.38021254539489746
      ],
      "type": "VEC3"
    },
    {
      "bufferView": 2,
      "byteOffset": 54084,
      "componentType": 5126,
      "count": 1235,
      "max": [
        1.0,
        1.0,
        1.0
      ],
      "min": [
        -1.0,
        -1.0,
        -1.0
      ],
      "type": "VEC3"
    },
    {
      "bufferView": 1,
      "byteOffset": 13088,
      "componentType": 5126,
      "count": 1235,
      "max": [
        0.8370436429977417,
        0.9637500643730164
      ],
      "min": [
        0.0004172287881374359,
        0.0004172287881374359
      ],
      "type": "VEC2"
    },
    {
      "bufferView": 0,
      "byteOffset": 20736,
      "componentType": 5125,
      "count": 4536,
      "type": "SCALAR"
    },
    {
      "bufferView": 2,
      "byteOffset": 68904,
      "componentType": 5126,
      "count": 2136,
      "max": [
        0.45110467076301575,
        0.721574604511261,
        0.38181859254837036
      ],
      "min": [
        -0.4511091113090515,
        0.6813855767250061,
        -0.3818185329437256
      ],
      "type": "VEC3"
    },
    {
      "bufferView": 2,
      "byteOffset": 94536,
      "componentType": 5126,
      "count": 2136,
      "max": [
        1.0,
        1.0,
        1.0
      ],
      "min": [
        -1.0,
        -1.0,
        -1.0
      ],
      "type": "VEC3"
    },
    {
      "bufferView": 1,
      "byteOffset": 22968,
      "componentType": 5126,
      "count": 2136,
      "max": [
        0.988361120223999,
        0.9771314859390259
      ],
      "min": [
        0.40278494358062744,
        0.0004172325134277344
      ],
      "type": "VEC2"
    },
    {
      "bufferView": 0,
      "byteOffset": 38880,
      "componentType": 5125,
      "count": 8568,
      "type": "SCALAR"
    },
    {
      "bufferView": 2,
      "byteOffset": 120168,
      "componentType": 5126,
      "count": 2668,
      "max": [
        0.7992196083068848,
        0.7215746641159058,
        0.34372249245643616
      ],
      "min": [
        -0.79921954870224,
        -1.1920928955078125e-07,
        -0.34372246265411377
      ],
      "type": "VEC3"
    },
    {
      "bufferView": 2,
      "byteOffset": 152184,
      "componentType": 5126,
      "count": 2668,
      "max": [
        1.0,
        1.0,
        1.0
      ],
      "min": [
        -1.0,
        -1.0,
        -1.0
      ],
      "type": "VEC3"
    },
    {
      "bufferView": 1,
      "byteOffset": 40056,
      "componentType": 5126,
      "count": 2668,
      "max": [
        0.9995827674865723,
        0.9825448989868164
      ],
      "min": [
        0.40178442001342773,
        0.33502525091171265
      ],
      "type": "VEC2"
    },
    {
      "bufferView": 0,
      "byteOffset": 73152,
      "componentType": 5125,
      "count": 9264,
      "type": "SCALAR"
    },
    {
      "bufferView": 2,
      "byteOffset": 184200,
      "componentType": 5126,
      "count": 1536,
      "max": [
        0.20498567819595337,
        0.7834259867668152,
        0.22919756174087524
      ],
      "min": [
        -0.20498567819595337,
        0.39802783727645874,
        -0.23743103444576263
      ],
      "type": "VEC3"
    },
    {
      "bufferView": 2,
      "byteOffset": 202632,
      "componentType": 5126,
      "count": 1536,
      "max": [
        1.0,
        1.0,
        1.0
      ],
      "min": [
        -1.0,
        -1.0,
        -1.0
      ],
      "type": "VEC3"
    },
    {
      "bufferView": 1,
      "byteOffset": 61400,
      "componentType": 5126,
      "count": 1536,
      "max": [
        0.5695192813873291,
        0.5450707674026489
      ],
      "min": [
        0.00015476346015930176,
        0.00015475782856810838
      ],
      "type": "VEC2"
    },
    {
      "bufferView": 0,
      "byteOffset": 110208,
      "componentType": 5125,
      "count": 2304,
      "type": "SCALAR"
    },
    {
      "bufferView": 2,
      "byteOffset": 221064,
      "componentType": 5126,
      "count": 3382,
      "max": [
        0.20455782115459442,
        0.6425669193267822,
        0.22864392399787903
      ],
      "min": [
        -0.20455782115459442,
        -0.0002130568027496338,
        -0.2271408885717392
      ],
      "type": "VEC3"
    },
    {
      "bufferView": 2,
      "byteOffset": 261648,
      "componentType": 5126,
      "count": 3382,
      "max": [
        1.0,
        0.9895001649856567,
        0.9866049289703369
      ],
      "min": [
        -1.0,
        -0.9865989089012146,
        -0.9924949407577515
      ],
      "type": "VEC3"
    },
    {
      "bufferView": 1,
      "byteOffset": 73688,
      "componentType": 5126,
      "count": 3382,
      "max": [
        0.8952777981758118,
        0.9998452067375183
      ],
      "min": [
        0.31684771180152893,
        0.00015475782856810838
      ],
      "type": "VEC2"
    },
    {
      "bufferView": 0,
      "byteOffset": 119424,
      "componentType": 5125,
      "count": 18432,
      "type": "SCALAR"
    },
    {
      "bufferView": 2,
      "byteOffset": 302232,
      "componentType": 5126,
      "count": 218,
      "max": [
        0.20664289593696594,
        0.41394808888435364,
        0.028448212891817093
      ],
      "min": [
        -0.20586632192134857,
        0.2328239232301712,
        -0.11601307988166809
      ],
      "type": "VEC3"
    },
    {
      "bufferView": 2,
      "byteOffset": 304848,
      "componentType": 5126,
      "count": 218,
      "max": [
        1.0,
        1.0,
        0.9510568976402283
      ],
      "min": [
        -1.0,
        -1.0,
        -0.9510568976402283
      ],
      "type": "VEC3"
    },
    {
      "bufferView": 1,
      "byteOffset": 100744,
      "componentType": 5126,
      "count": 218,
      "max": [
        0.4620777368545532,
        0.6591237187385559
      ],
      "min": [
        0.41180986166000366,
        0.34186995029449463
      ],
      "type": "VEC2"
    },
    {
      "bufferView": 0,
      "byteOffset": 193152,
      "componentType": 5125,
      "count": 396,
      "type": "SCALAR"
    }
  ],
  "asset": {
    "extras": {
      "author": "Full Barrel Productions (https://sketchfab.com/Full_Barrel_Production)",
      "license": "CC-BY-4.0 (http://creativecommons.org/licenses/by/4.0/)",
      "source": "https://sketchfab.com/3d-models/folding-table-and-chair-d807a5c064be4a9e80e46284973b1454",
      "title": "Folding Table and Chair"
    },
    "generator": "Sketchfab-14.46.0",
    "version": "2.0"
  },
  "bufferViews": [
    {
      "buffer": 0,
      "byteLength": 194736,
      "name": "floatBufferViews",
      "target": 34963
    },
    {
      "buffer": 0,
      "byteLength": 102488,
      "byteOffset": 194736,
      "byteStride": 8,
      "name": "floatBufferViews",
      "target": 34962
    },
    {
      "buffer": 0,
      "byteLength": 307464,
      "byteOffset": 297224,
      "byteStride": 12,
      "name": "floatBufferViews",
      "target": 34962
    }
  ],
  "buffers": [
    {
      "byteLength": 604688,
      "uri": "scene.bin"
    }
  ],
  "materials": [
    {
      "doubleSided": true,
      "name": "Material",
      "pbrMetallicRoughness": {
        "baseColorFactor": [
          0.384375,
          0.384375,
          0.384375,
          1.0
        ],
        "metallicFactor": 0.0,
        "roughnessFactor": 0.5
      }
    },
    {
      "doubleSided": true,
      "name": "White_Plastic",
      "pbrMetallicRoughness": {
        "baseColorFactor": [
          0.8,
          0.8,
          0.8,
          1.0
        ],
        "metallicFactor": 0.0,
        "roughnessFactor": 0.783465
      }
    },
    {
      "doubleSided": true,
      "name": "Stainless_Steel",
      "pbrMetallicRoughness": {
        "baseColorFactor": [
          0.507069,
          0.507069,
          0.507069,
          1.0
        ],
        "metallicFactor": 0.897638,
        "roughnessFactor": 0.240157
      }
    },
    {
      "doubleSided": true,
      "name": "Material.001",
      "pbrMetallicRoughness": {
        "baseColorFactor": [
          0.00364212,
          0.00364212,
          0.00364212,
          1.0
        ],
        "metallicFactor": 0.0,
        "roughnessFactor": 0.933071
      }
    }
  ],
  "meshes": [
    {
      "name": "Object_0",
      "primitives": [
        {
          "attributes": {
            "NORMAL": 1,
            "POSITION": 0,
            "TEXCOORD_0": 2
          },
          "indices": 3,
          "material": 0,
          "mode": 4
        }
      ]
    },
    {
      "name": "Object_1",
      "primitives": [
        {
          "attributes": {
            "NORMAL": 5,
            "POSITION": 4,
            "TEXCOORD_0": 6
          },
          "indices": 7,
          "material": 1,
          "mode": 4
        }
      ]
    },
    {
      "name": "Object_2",
      "primitives": [
        {
          "attributes": {
            "NORMAL": 9,
            "POSITION": 8,
            "TEXCOORD_0": 10
          },
          "indices": 11,
          "material": 2,
          "mode": 4
        }
      ]
    },
    {
      "name": "Object_3",
      "primitives": [
        {
          "attributes": {
            "NORMAL": 13,
            "POSITION": 12,
            "TEXCOORD_0": 14
          },
          "indices": 15,
          "material": 3,
          "mode": 4
        }
      ]
    },
    {
      "name": "Object_4",
      "primitives": [
        {
          "attributes": {
            "NORMAL": 17,
            "POSITION": 16,
            "TEXCOORD_0": 18
          },
          "indices": 19,
          "material": 1,
          "mode": 4
        }
      ]
    },
    {
      "name": "Object_5",
      "primitives": [
        {
          "attributes": {
            "NORMAL": 21,
            "POSITION": 20,
            "TEXCOORD_0": 22
          },
          "indices": 23,
          "material": 2,
          "mode": 4
        }
      ]
    },
    {
      "name": "Object_6",
      "primitives": [
        {
          "attributes": {
            "NORMAL": 25,
            "POSITION": 24,
            "TEXCOORD_0": 26
          },
          "indices": 27,
          "material": 3,
          "mode": 4
        }
      ]
    }
  ],
  "nodes": [
    {
      "children": [
        1
      ],
      "matrix": [
        1.0,
        0.0,
        0.0,
        0.0,
        0.0,
        2.220446049250313e-16,
        -1.0,
        0.0,
        0.0,
        1.0,
        2.220446049250313e-16,
        0.0,
        0.0,
        0.0,
        0.0,
        1.0
      ],
      "name": "Sketchfab_model"
    },
    {
      "children": [
        2
      ],
      "name": "root"
    },
    {
      "children": [
        3,
        8
      ],
      "matrix": [
        1.0,
        0.0,
        0.0,
        0.0,
        0.0,
        2.220446049250313e-16,
        1.0,
        0.0,
        0.0,
        -1.0,
        2.220446049250313e-16,
        0.0,
        0.0,
        0.0,
        0.0,
        1.0
      ],
      "name": "GLTF_SceneRootNode"
    },
    {
      "children": [
        4,
        5,
        6,
        7
      ],
      "name": "Folding Table_0"
    },
    {
      "mesh": 0,
      "name": "Object_4"
    },
    {
      "mesh": 1,
      "name": "Object_5"
    },
    {
      "mesh": 2,
      "name": "Object_6"
    },
    {
      "mesh": 3,
      "name": "Object_7"
    },
    {
      "children": [
        9,
        10,
        11
      ],
      "matrix": [
        1.0,
        0.0,
        0.0,
        0.0,
        0.0,
        1.0,
        0.0,
        0.0,
        0.0,
        0.0,
        1.0,
        0.0,
        1.2235006093978882,
        0.0,
        0.0,
        1.0
      ],
      "name": "Folding Chair_1"
    },
    {
      "mesh": 4,
      "name": "Object_9"
    },
    {
      "mesh": 5,
      "name": "Object_10"
    },
    {
      "mesh": 6,
      "name": "Object_11"
    }
  ],
  "scene": 0,
  "scenes": [
    {
      "name": "Sketchfab_Scene",
      "nodes": [
        0
      ]
    }
  ]
}
