{  "asset": {    "version": "2.0",    "generator": "THREE.GLTFExporter"  },  "scenes": [    {      "name": "AuxScene",      "nodes": [        5      ]    }  ],  "scene": 0,  "nodes": [    {      "mesh": 0    },    {      "mesh": 1    },    {      "mesh": 2    },    {      "mesh": 3    },    {      "mesh": 4    },    {      "children": [        0,        1,        2,        3,        4      ]    }  ],  "bufferViews": [    {      "buffer": 0,      "byteOffset": 0,      "byteLength": 18288,      "target": 34962,      "byteStride": 12    },    {      "buffer": 0,      "byteOffset": 18288,      "byteLength": 18288,      "target": 34962,      "byteStride": 12    },    {      "buffer": 0,      "byteOffset": 36576,      "byteLength": 12192,      "target": 34962,      "byteStride": 8    },    {      "buffer": 0,      "byteOffset": 48768,      "byteLength": 10368,      "target": 34962,      "byteStride": 12    },    {      "buffer": 0,      "byteOffset": 59136,      "byteLength": 10368,      "target": 34962,      "byteStride": 12    },    {      "buffer": 0,      "byteOffset": 69504,      "byteLength": 6912,      "target": 34962,      "byteStride": 8    },    {      "buffer": 0,      "byteOffset": 76416,      "byteLength": 190224,      "target": 34962,      "byteStride": 12    },    {      "buffer": 0,      "byteOffset": 266640,      "byteLength": 190224,      "target": 34962,      "byteStride": 12    },    {      "buffer": 0,      "byteOffset": 456864,      "byteLength": 126816,      "target": 34962,      "byteStride": 8    },    {      "buffer": 0,      "byteOffset": 583680,      "byteLength": 107640,      "target": 34962,      "byteStride": 12    },    {      "buffer": 0,      "byteOffset": 691320,      "byteLength": 107640,      "target": 34962,      "byteStride": 12    },    {      "buffer": 0,      "byteOffset": 798960,      "byteLength": 71760,      "target": 34962,      "byteStride": 8    },    {      "buffer": 0,      "byteOffset": 870720,      "byteLength": 62064,      "target": 34962,      "byteStride": 12    },    {      "buffer": 0,      "byteOffset": 932784,      "byteLength": 62064,      "target": 34962,      "byteStride": 12    },    {      "buffer": 0,      "byteOffset": 994848,      "byteLength": 41376,      "target": 34962,      "byteStride": 8    }  ],  "buffers": [    {      "byteLength": 1036224,      "uri": "data:application/octet-stream;base64,"    }  ],  "accessors": [    {      "bufferView": 0,      "componentType": 5126,      "count": 1524,      "max": [        -12.009150505065918,        9.45158863067627,        14.772113800048828      ],      "min": [        -14.304940223693848,        -0.017571743577718735,        -29.136383056640625      ],      "type": "VEC3"    },    {      "bufferView": 1,      "componentType": 5126,      "count": 1524,      "max": [        0.713187038898468,        0.9850153923034668,        0.9858089089393616      ],      "min": [        -0.999847412109375,        -0.9954222440719604,        -0.9857173562049866      ],      "type": "VEC3"    },    {      "bufferView": 2,      "componentType": 5126,      "count": 1524,      "max": [        -0.011352885514497757,        0.9924008846282959      ],      "min": [        -0.729972243309021,        0.3574938178062439      ],      "type": "VEC2"    },    {      "bufferView": 3,      "componentType": 5126,      "count": 864,      "max": [        -12.009153366088867,        -0.019226623699069023,        14.772113800048828      ],      "min": [        -14.304941177368164,        -9.069012641906738,        -29.136384963989258      ],      "type": "VEC3"    },    {      "bufferView": 4,      "componentType": 5126,      "count": 864,      "max": [        0.7085177302360535,        0.9456160068511963,        0.904507577419281      ],      "min": [        -0.9242530465126038,        -0.9456160068511963,        -0.9062776565551758      ],      "type": "VEC3"    },    {      "bufferView": 5,      "componentType": 5126,      "count": 864,      "max": [        -0.011352885514497757,        0.9929196834564209      ],      "min": [        -0.5703604221343994,        0.3806878924369812      ],      "type": "VEC2"    },    {      "bufferView": 6,      "componentType": 5126,      "count": 15852,      "max": [        22.976551055908203,        22.976551055908203,        15.901975631713867      ],      "min": [        -22.976551055908203,        -22.976551055908203,        -30.000003814697266      ],      "type": "VEC3"    },    {      "bufferView": 7,      "componentType": 5126,      "count": 15852,      "max": [        1,        1,        1      ],      "min": [        -1,        -1,        -1      ],      "type": "VEC3"    },    {      "bufferView": 8,      "componentType": 5126,      "count": 15852,      "max": [        -0.001434369944036007,        0.9988402724266052      ],      "min": [        -0.9914853572845459,        0.0006714072078466415      ],      "type": "VEC2"    },    {      "bufferView": 9,      "componentType": 5126,      "count": 8970,      "max": [        18.45284652709961,        18.452836990356445,        30      ],      "min": [        -18.452831268310547,        -18.452842712402344,        -30.000001907348633      ],      "type": "VEC3"    },    {      "bufferView": 10,      "componentType": 5126,      "count": 8970,      "max": [        1,        1,        1      ],      "min": [        -1,        -1,        -1      ],      "type": "VEC3"    },    {      "bufferView": 11,      "componentType": 5126,      "count": 8970,      "max": [        0.99969482421875,        0.9959105253219604      ],      "min": [        0.0031434064731001854,        0.00039674062281847      ],      "type": "VEC2"    },    {      "bufferView": 12,      "componentType": 5126,      "count": 5172,      "max": [        14.906400680541992,        15.097541809082031,        19.904640197753906      ],      "min": [        -14.480027198791504,        -15.129369735717773,        -29.405803680419922      ],      "type": "VEC3"    },    {      "bufferView": 13,      "componentType": 5126,      "count": 5172,      "max": [        1,        1,        1      ],      "min": [        -1,        -1,        -0.9974059462547302      ],      "type": "VEC3"    },    {      "bufferView": 14,      "componentType": 5126,      "count": 5172,      "max": [        0.9945676922798157,        0.9976195693016052      ],      "min": [        0.0029908139258623123,        0.048005614429712296      ],      "type": "VEC2"    }  ],  "materials": [    {      "pbrMetallicRoughness": {        "baseColorFactor": [          0.2140411404715882,          0.2140411404715882,          0.2140411404715882,          1        ],        "metallicFactor": 0.5,        "roughnessFactor": 0.5      },      "doubleSided": true,      "name": "mat0"    }  ],  "meshes": [    {      "primitives": [        {          "mode": 4,          "attributes": {            "POSITION": 0,            "NORMAL": 1,            "TEXCOORD_0": 2          },          "material": 0        }      ]    },    {      "primitives": [        {          "mode": 4,          "attributes": {            "POSITION": 3,            "NORMAL": 4,            "TEXCOORD_0": 5          },          "material": 0        }      ]    },    {      "primitives": [        {          "mode": 4,          "attributes": {            "POSITION": 6,            "NORMAL": 7,            "TEXCOORD_0": 8          },          "material": 0        }      ]    },    {      "primitives": [        {          "mode": 4,          "attributes": {            "POSITION": 9,            "NORMAL": 10,            "TEXCOORD_0": 11          },          "material": 0        }      ]    },    {      "primitives": [        {          "mode": 4,          "attributes": {            "POSITION": 12,            "NORMAL": 13,            "TEXCOORD_0": 14          },          "material": 0        }      ]    }  ]}